<svg width="1028" height="577" viewBox="0 0 1028 577" fill="none" xmlns="http://www.w3.org/2000/svg">
<path d="M387.813 318.344C387.813 322.746 386.673 326.871 384.397 330.723C382.122 334.575 378.652 337.914 374.005 340.735C376.211 341.499 378.106 342.599 379.685 344.036C381.27 345.473 382.561 347.087 383.567 348.882C384.574 350.677 385.318 352.59 385.794 354.625C386.271 356.661 386.512 358.68 386.512 360.689V375.184C386.512 377 386.956 379.132 387.845 381.568C388.734 384.01 389.944 386.521 391.475 389.101H372.918C372.2 387.952 371.611 386.756 371.156 385.511C370.701 384.266 370.364 383.048 370.15 381.851C369.935 380.654 369.791 379.532 369.716 378.48C369.646 377.427 369.609 376.492 369.609 375.68V360.465C369.609 358.985 369.357 357.5 368.854 356.014C368.351 354.534 367.547 353.204 366.445 352.034C365.342 350.864 363.88 349.908 362.059 349.165C360.239 348.423 358.033 348.054 355.442 348.054H329.838V389.101H312.865V288.992H355.442C360.619 288.992 365.224 289.852 369.25 291.577C373.276 293.298 376.671 295.547 379.428 298.325C382.186 301.098 384.269 304.234 385.687 307.728C387.101 311.222 387.808 314.759 387.808 318.349L387.813 318.344ZM329.849 333.848H355.452C357.514 333.848 359.468 333.479 361.315 332.737C363.162 331.994 364.79 330.968 366.204 329.649C367.617 328.334 368.731 326.742 369.55 324.878C370.364 323.013 370.771 320.956 370.771 318.707C370.771 316.458 370.385 314.46 369.62 312.574C368.854 310.682 367.788 309.058 366.418 307.696C365.052 306.334 363.435 305.254 361.562 304.469C359.693 303.678 357.653 303.283 355.447 303.283H329.843V333.853L329.849 333.848Z" fill="white"/>
<path d="M431.68 287.266L472.516 363.409V324.386L488.605 310.576V387.375H470.471L429.431 310.517L429.806 370.877H414.225L413.347 287.266H431.685H431.68Z" fill="white"/>
<path d="M604.432 338.795C604.432 346.547 603.398 353.664 601.337 360.144C599.276 366.63 596.267 372.202 592.31 376.866C588.353 381.531 583.502 385.153 577.747 387.739C571.991 390.319 565.4 391.612 557.968 391.612C550.537 391.612 543.957 390.308 538.228 387.701C532.499 385.094 527.653 381.456 523.702 376.792C519.745 372.128 516.752 366.555 514.712 360.069C512.672 353.589 511.655 346.472 511.655 338.72C511.655 330.968 512.672 323.889 514.712 317.478C516.752 311.067 519.745 305.564 523.702 300.975C527.658 296.38 532.499 292.817 538.228 290.284C543.957 287.752 550.537 286.48 557.968 286.48C565.4 286.48 571.991 287.763 577.747 290.322C583.502 292.881 588.353 296.455 592.31 301.05C596.267 305.644 599.276 311.147 601.337 317.553C603.398 323.964 604.432 331.043 604.432 338.795ZM587.459 338.726C587.459 332.651 586.694 327.244 585.157 322.506C583.62 317.772 581.527 313.786 578.866 310.56C576.205 307.333 573.089 304.87 569.517 303.165C565.946 301.466 562.096 300.617 557.974 300.617C553.851 300.617 549.932 301.466 546.361 303.165C542.789 304.864 539.695 307.327 537.082 310.56C534.469 313.792 532.408 317.772 530.898 322.506C529.388 327.244 528.633 332.651 528.633 338.726C528.633 344.8 529.388 350.234 530.898 355.015C532.408 359.802 534.469 363.857 537.082 367.18C539.695 370.503 542.784 373.041 546.361 374.788C549.932 376.535 553.803 377.406 557.974 377.406C562.145 377.406 565.946 376.535 569.517 374.788C573.089 373.041 576.205 370.509 578.866 367.18C581.527 363.857 583.626 359.802 585.157 355.015C586.694 350.234 587.459 344.8 587.459 338.726Z" fill="white"/>
<path d="M262.82 224.624C262.82 231.179 263.628 236.848 265.251 241.624C266.868 246.406 269.004 250.354 271.649 253.469C274.294 256.589 277.292 258.907 280.649 260.435C284.001 261.958 287.39 262.722 290.812 262.722C294.233 262.722 297.515 262.006 300.39 260.569C303.265 259.137 305.787 257.235 307.95 254.868C310.119 252.502 311.907 249.804 313.32 246.78C314.734 243.756 315.762 240.646 316.399 237.457H332.82C331.771 242.874 330.095 247.918 327.793 252.582C325.491 257.251 322.567 261.322 319.033 264.806C315.5 268.289 311.372 271.019 306.649 273.001C301.927 274.978 296.648 275.972 290.806 275.972C284.055 275.972 277.967 274.823 272.538 272.526C267.109 270.228 262.477 266.884 258.649 262.487C254.816 258.095 251.865 252.71 249.788 246.336C247.711 239.963 246.677 232.702 246.677 224.555C246.677 218.229 247.657 212.138 249.622 206.288C251.582 200.438 254.446 195.261 258.21 190.757C261.974 186.248 266.579 182.653 272.029 179.971C277.48 177.283 283.696 175.942 290.678 175.942C296.61 175.942 301.9 176.786 306.553 178.469C311.206 180.152 315.285 182.487 318.803 185.468C322.315 188.449 325.271 191.991 327.664 196.084C330.058 200.182 331.964 204.664 333.377 209.536H316.613C314.193 202.757 310.863 197.692 306.622 194.342C302.382 190.998 297.065 189.325 290.678 189.325C286.571 189.325 282.818 190.26 279.423 192.125C276.023 193.99 273.095 196.527 270.632 199.738C268.169 202.949 266.252 206.694 264.887 210.968C263.516 215.248 262.836 219.8 262.836 224.624H262.82Z" fill="white"/>
<path d="M366.011 209.408V241.421C366.011 244.744 366.557 247.715 367.655 250.333C368.747 252.95 370.208 255.157 372.034 256.957C373.86 258.758 375.97 260.12 378.363 261.055C380.756 261.99 383.257 262.455 385.853 262.455C388.638 262.455 391.341 262.022 393.96 261.157C396.583 260.291 398.923 258.993 400.974 257.267C403.024 255.536 404.668 253.372 405.899 250.781C407.131 248.185 407.747 245.161 407.747 241.699V178.336H423.895V241.015C423.895 246.705 422.835 251.722 420.714 256.07C418.594 260.419 415.778 264.068 412.265 267.028C408.753 269.988 404.716 272.216 400.154 273.717C395.593 275.218 390.87 275.972 385.987 275.972C381.104 275.972 376.832 275.229 372.473 273.754C368.115 272.275 364.26 270.068 360.908 267.13C357.557 264.191 354.874 260.521 352.866 256.103C350.859 251.69 349.857 246.566 349.857 240.737V209.408H366.005H366.011Z" fill="white"/>
<path d="M480.622 220.532L504.571 178.336H522.979L488.423 235.897V269.272L472.205 281.357V235.897L437.719 178.336H456.057L480.622 220.532Z" fill="white"/>
<path d="M568.484 248.933L592.021 178.33H609.128L577.035 273.578H559.928L527.423 178.33H544.599L568.479 248.933H568.484Z" fill="white"/>
<path d="M691.314 178.33V191.917H640.064V217.657H688.171V231.313H640.064V259.784H693.504V273.578H623.916V178.33H691.319H691.314Z" fill="white"/>
<path d="M767.745 259.949V246.336C767.745 244.926 767.504 243.515 767.027 242.105C766.551 240.694 765.785 239.434 764.736 238.317C763.686 237.2 762.294 236.292 760.559 235.587C758.825 234.882 756.726 234.529 754.263 234.529H729.901V273.583H713.753V178.336H754.263C759.189 178.336 763.568 179.153 767.402 180.793C771.236 182.433 774.459 184.571 777.082 187.21C779.706 189.849 781.692 192.83 783.036 196.153C784.38 199.476 785.055 202.848 785.055 206.256C785.055 210.445 783.973 214.372 781.805 218.037C779.636 221.702 776.343 224.875 771.916 227.562C774.014 228.289 775.819 229.336 777.323 230.704C778.828 232.072 780.059 233.605 781.018 235.314C781.976 237.024 782.683 238.841 783.138 240.775C783.593 242.709 783.823 244.632 783.823 246.545V247.389M729.907 221.007H754.268C756.228 221.007 758.091 220.654 759.847 219.949C761.603 219.244 763.156 218.266 764.5 217.011C765.844 215.761 766.904 214.243 767.68 212.47C768.457 210.696 768.842 208.735 768.842 206.598C768.842 204.461 768.478 202.559 767.75 200.759C767.022 198.963 766.005 197.414 764.704 196.116C763.402 194.818 761.866 193.792 760.083 193.044C758.305 192.291 756.362 191.917 754.268 191.917H729.907V221.002V221.007Z" fill="white"/>
<path d="M818.791 240.262C819.016 243.537 819.691 246.534 820.81 249.243C821.929 251.951 823.396 254.286 825.222 256.241C827.047 258.197 829.189 259.714 831.652 260.783C834.115 261.851 836.829 262.385 839.796 262.385C842.398 262.385 844.893 262.113 847.286 261.568C849.679 261.023 851.789 260.136 853.615 258.907C855.441 257.679 856.897 256.076 857.994 254.094C859.087 252.117 859.638 249.691 859.638 246.822C859.638 244.226 858.851 242.057 857.277 240.299C855.703 238.547 853.636 237.008 851.082 235.688C848.528 234.369 845.61 233.188 842.323 232.136C839.041 231.088 835.694 229.999 832.3 228.861C828.9 227.723 825.559 226.435 822.277 225.003C818.995 223.571 816.071 221.819 813.517 219.746C810.963 217.673 808.897 215.184 807.323 212.272C805.748 209.36 804.961 205.855 804.961 201.758C804.961 197.66 805.781 193.872 807.424 190.661C809.068 187.45 811.381 184.758 814.369 182.572C817.356 180.387 820.911 178.736 825.045 177.62C829.173 176.503 833.703 175.948 838.628 175.948C845.198 175.948 850.659 176.904 855.018 178.817C859.376 180.729 862.872 183.197 865.522 186.227C868.167 189.256 870.084 192.611 871.267 196.298C872.451 199.984 873.157 203.606 873.388 207.154H856.897C856.624 204.103 855.976 201.464 854.948 199.236C853.92 197.008 852.587 195.165 850.943 193.706C849.299 192.248 847.431 191.169 845.332 190.463C843.233 189.758 841 189.406 838.628 189.406C836.481 189.406 834.361 189.625 832.268 190.052C830.169 190.485 828.3 191.19 826.656 192.168C825.013 193.145 823.69 194.422 822.689 195.993C821.682 197.564 821.185 199.487 821.185 201.763C821.185 204.402 821.972 206.625 823.546 208.42C825.12 210.22 827.181 211.791 829.74 213.132C832.294 214.473 835.212 215.68 838.5 216.749C841.782 217.817 845.139 218.934 848.56 220.093C851.982 221.253 855.333 222.54 858.621 223.951C861.903 225.361 864.826 227.092 867.38 229.138C869.934 231.185 872.001 233.648 873.575 236.511C875.149 239.38 875.936 242.815 875.936 246.822C875.936 251.695 875.037 255.948 873.232 259.591C871.428 263.235 868.922 266.259 865.704 268.674C862.487 271.088 858.68 272.905 854.279 274.134C849.878 275.363 845.053 275.977 839.806 275.977C835.105 275.977 830.544 275.16 826.121 273.519C821.693 271.879 817.742 269.512 814.251 266.419C810.76 263.326 807.933 259.581 805.765 255.189C803.596 250.797 802.445 245.823 802.306 240.272H818.797L818.791 240.262Z" fill="white"/>
<path d="M200.824 389.101H218.375C220.099 384.271 221.887 379.388 223.735 374.462C225.582 369.536 227.365 364.653 229.094 359.824H211.559L200.829 389.101H200.824Z" fill="white"/>
<path d="M257.064 288.992H237.505L216.758 345.612H234.341L247.143 310.02L259.87 345.612L265.192 359.824L275.981 389.101H293.746L257.064 288.992Z" fill="white"/>
<path d="M192.3 338.939C194.45 338.939 196.193 337.2 196.193 335.055C196.193 332.91 194.45 331.171 192.3 331.171C190.15 331.171 188.408 332.91 188.408 335.055C188.408 337.2 190.15 338.939 192.3 338.939Z" stroke="white" stroke-width="2.42" stroke-miterlimit="10"/>
<path d="M155.967 329.446C158.117 329.446 159.859 327.707 159.859 325.562C159.859 323.416 158.117 321.677 155.967 321.677C153.817 321.677 152.074 323.416 152.074 325.562C152.074 327.707 153.817 329.446 155.967 329.446Z" stroke="white" stroke-width="2.42" stroke-miterlimit="10"/>
<path d="M357.541 177.513C359.69 177.513 361.433 175.774 361.433 173.629C361.433 171.484 359.69 169.745 357.541 169.745C355.391 169.745 353.648 171.484 353.648 173.629C353.648 175.774 355.391 177.513 357.541 177.513Z" stroke="white" stroke-width="2.42" stroke-miterlimit="10"/>
<path d="M412.474 415.339C412.474 413.191 414.22 411.454 416.367 411.454C418.514 411.454 420.259 413.196 420.259 415.339C420.259 417.481 418.514 419.223 416.367 419.223C414.214 419.223 412.474 417.481 412.474 415.339Z" stroke="white" stroke-width="2.42" stroke-miterlimit="10"/>
<path d="M432.804 395.053C434.954 395.053 436.697 393.314 436.697 391.169C436.697 389.023 434.954 387.285 432.804 387.285C430.654 387.285 428.912 389.023 428.912 391.169C428.912 393.314 430.654 395.053 432.804 395.053Z" stroke="white" stroke-width="2.42" stroke-miterlimit="10"/>
<path d="M183.648 381.237C185.798 381.237 187.54 379.498 187.54 377.353C187.54 375.208 185.798 373.469 183.648 373.469C181.498 373.469 179.755 375.208 179.755 377.353C179.755 379.498 181.498 381.237 183.648 381.237Z" stroke="white" stroke-width="2.42" stroke-miterlimit="10"/>
<path d="M194.897 357.067C197.047 357.067 198.79 355.328 198.79 353.183C198.79 351.038 197.047 349.299 194.897 349.299C192.747 349.299 191.005 351.038 191.005 353.183C191.005 355.328 192.747 357.067 194.897 357.067Z" stroke="white" stroke-width="2.42" stroke-miterlimit="10"/>
<path d="M198.789 353.183H265.727" stroke="white" stroke-width="2.42" stroke-miterlimit="10"/>
<path d="M196.193 335.055L201.6 340.451H221.282" stroke="white" stroke-width="2.42" stroke-miterlimit="10"/>
<path d="M159.859 325.562H172.833L192.948 345.628H263.345" stroke="white" stroke-width="2.42" stroke-miterlimit="10"/>
<path d="M168.078 361.384C170.228 361.384 171.97 359.645 171.97 357.5C171.97 355.354 170.228 353.615 168.078 353.615C165.928 353.615 164.186 355.354 164.186 357.5C164.186 359.645 165.928 361.384 168.078 361.384Z" stroke="white" stroke-width="2.42" stroke-miterlimit="10"/>
<path d="M171.97 357.5L178.674 364.188H203.978L208.411 359.765H269.727" stroke="white" stroke-width="2.42" stroke-miterlimit="10"/>
<path d="M187.54 377.353L195.979 368.938H210.901" stroke="white" stroke-width="2.42" stroke-miterlimit="10"/>
<path d="M410.311 396.778C412.461 396.778 414.204 395.039 414.204 392.894C414.204 390.749 412.461 389.01 410.311 389.01C408.161 389.01 406.419 390.749 406.419 392.894C406.419 395.039 408.161 396.778 410.311 396.778Z" stroke="white" stroke-width="2.42" stroke-miterlimit="10"/>
<path d="M410.311 389.01V382.968L415.285 378.004V370.017" stroke="white" stroke-width="2.42" stroke-miterlimit="10"/>
<path d="M416.367 411.454L422.208 405.626V369.152" stroke="white" stroke-width="2.42" stroke-miterlimit="10"/>
<path d="M432.804 387.285V381.237L429.126 377.572V370.274" stroke="white" stroke-width="2.42" stroke-miterlimit="10"/>
<path d="M768.473 285.417C770.623 285.417 772.365 283.678 772.365 281.533C772.365 279.388 770.623 277.649 768.473 277.649C766.323 277.649 764.58 279.388 764.58 281.533C764.58 283.678 766.323 285.417 768.473 285.417Z" stroke="white" stroke-width="2.42" stroke-miterlimit="10"/>
<path d="M768.473 277.649V256.065" stroke="white" stroke-width="2.42" stroke-miterlimit="10"/>
<path d="M791.828 311.313C793.977 311.313 795.72 309.574 795.72 307.429C795.72 305.284 793.977 303.545 791.828 303.545C789.678 303.545 787.935 305.284 787.935 307.429C787.935 309.574 789.678 311.313 791.828 311.313Z" stroke="white" stroke-width="2.42" stroke-miterlimit="10"/>
<path d="M791.828 303.545L782.961 294.697V281.966L775.498 274.518V249.162" stroke="white" stroke-width="2.42" stroke-miterlimit="10"/>
<path d="M793.129 285.85C793.129 283.702 794.874 281.966 797.021 281.966C799.168 281.966 800.914 283.708 800.914 285.85C800.914 287.992 799.168 289.734 797.021 289.734C794.869 289.734 793.129 287.992 793.129 285.85Z" stroke="white" stroke-width="2.42" stroke-miterlimit="10"/>
<path d="M797.021 281.966L783.395 268.369V246.545" stroke="white" stroke-width="2.42" stroke-miterlimit="10"/>
<path d="M473.137 276.207V295.344L477.624 298.961V330.739" stroke="white" stroke-width="1.62" stroke-miterlimit="10"/>
<path d="M476.323 271.639V292.758L481.382 297.801V335.921" stroke="white" stroke-width="1.62" stroke-miterlimit="10"/>
<path d="M464.811 309.587C466.961 309.587 468.704 307.848 468.704 305.703C468.704 303.558 466.961 301.819 464.811 301.819C462.662 301.819 460.919 303.558 460.919 305.703C460.919 307.848 462.662 309.587 464.811 309.587Z" stroke="white" stroke-width="2.42" stroke-miterlimit="10"/>
<path d="M464.811 309.587L473.249 318.007V328.612" stroke="white" stroke-width="2.42" stroke-miterlimit="10"/>
<path d="M483.845 271.174V275.491L479.519 279.808V290.167L485.141 295.777V332.464" stroke="white" stroke-width="1.88" stroke-miterlimit="10"/>
<path d="M501.15 300.954C503.3 300.954 505.042 299.215 505.042 297.07C505.042 294.924 503.3 293.185 501.15 293.185C499 293.185 497.258 294.924 497.258 297.07C497.258 299.215 499 300.954 501.15 300.954Z" stroke="white" stroke-width="2.42" stroke-miterlimit="10"/>
<path d="M488.172 267.723V276.356L485.141 279.375V285.161L497.386 297.374" stroke="white" stroke-width="1.88" stroke-miterlimit="10"/>
<path d="M357.541 177.513V218.085" stroke="white" stroke-width="2.42" stroke-miterlimit="10"/>
<path d="M373.11 164.563C375.26 164.563 377.003 162.824 377.003 160.678C377.003 158.533 375.26 156.794 373.11 156.794C370.961 156.794 369.218 158.533 369.218 160.678C369.218 162.824 370.961 164.563 373.11 164.563Z" stroke="white" stroke-width="2.42" stroke-miterlimit="10"/>
<path d="M373.11 164.563V177.513L368.57 182.043V189.598L365.433 192.729V209.408" stroke="white" stroke-width="2.42" stroke-miterlimit="10"/>
<path d="M343.695 184.416C345.844 184.416 347.587 182.677 347.587 180.532C347.587 178.386 345.844 176.647 343.695 176.647C341.545 176.647 339.802 178.386 339.802 180.532C339.802 182.677 341.545 184.416 343.695 184.416Z" stroke="white" stroke-width="2.42" stroke-miterlimit="10"/>
<path d="M343.695 184.416L350.398 191.11V213.346" stroke="white" stroke-width="2.42" stroke-miterlimit="10"/>
</svg>
