<?xml version="1.0" encoding="UTF-8"?>
<svg id="Laag_3" xmlns="http://www.w3.org/2000/svg" version="1.1" viewBox="0 0 1920 1080">
  <!-- Generator: Adobe Illustrator 29.3.1, SVG Export Plug-In . SVG Version: 2.1.0 Build 151)  -->
  <defs>
    <style>
      .st0 {
        stroke-width: 1.62px;
      }

      .st0, .st1, .st2 {
        fill: none;
        stroke: #000;
        stroke-miterlimit: 10;
      }

      .st1 {
        stroke-width: 1.88px;
      }

      .st2 {
        stroke-width: 2.42px;
      }
    </style>
  </defs>
  <path d="M724.32,595.86c0,8.24-2.13,15.96-6.38,23.17-4.25,7.21-10.73,13.46-19.41,18.74,4.12,1.43,7.66,3.49,10.61,6.18,2.96,2.69,5.37,5.71,7.25,9.07,1.88,3.36,3.27,6.94,4.16,10.75.89,3.81,1.34,7.59,1.34,11.35v27.13c0,3.4.83,7.39,2.49,11.95,1.66,4.57,3.92,9.27,6.78,14.1h-34.66c-1.34-2.15-2.44-4.39-3.29-6.72-.85-2.33-1.48-4.61-1.88-6.85-.4-2.24-.67-4.34-.81-6.31-.13-1.97-.2-3.72-.2-5.24v-28.48c0-2.77-.47-5.55-1.41-8.33-.94-2.77-2.44-5.26-4.5-7.45-2.06-2.19-4.79-3.98-8.19-5.37-3.4-1.39-7.52-2.08-12.36-2.08h-47.82v76.83h-31.7v-187.38h79.52c9.67,0,18.27,1.61,25.79,4.84,7.52,3.22,13.86,7.43,19.01,12.63,5.15,5.19,9.04,11.06,11.69,17.6,2.64,6.54,3.96,13.16,3.96,19.88ZM616.06,624.88h47.82c3.85,0,7.5-.69,10.95-2.08,3.45-1.39,6.49-3.31,9.13-5.78,2.64-2.46,4.72-5.44,6.25-8.93,1.52-3.49,2.28-7.34,2.28-11.55s-.72-7.95-2.15-11.48c-1.43-3.54-3.42-6.58-5.98-9.13-2.55-2.55-5.57-4.57-9.07-6.04-3.49-1.48-7.3-2.22-11.42-2.22h-47.82v57.22Z"/>
  <path d="M806.25,537.69l76.27,142.52v-73.04l30.05-25.85v143.75h-33.87l-76.65-143.86.7,112.98h-29.1l-1.64-156.5h34.25Z"/>
  <path d="M1128.9,634.14c0,14.51-1.93,27.83-5.78,39.96-3.85,12.14-9.47,22.57-16.86,31.3-7.39,8.73-16.45,15.51-27.2,20.35-10.75,4.83-23.06,7.25-36.94,7.25s-26.17-2.44-36.87-7.32c-10.7-4.88-19.75-11.69-27.13-20.42-7.39-8.73-12.98-19.16-16.79-31.3-3.81-12.13-5.71-25.45-5.71-39.96s1.9-27.76,5.71-39.76c3.81-12,9.4-22.3,16.79-30.89,7.39-8.6,16.43-15.27,27.13-20.01,10.7-4.74,22.99-7.12,36.87-7.12s26.19,2.4,36.94,7.19c10.75,4.79,19.81,11.48,27.2,20.08,7.39,8.6,13.01,18.9,16.86,30.89,3.85,12,5.78,25.25,5.78,39.76ZM1097.2,634.01c0-11.37-1.43-21.49-4.3-30.36-2.87-8.86-6.78-16.32-11.75-22.36-4.97-6.04-10.79-10.65-17.46-13.84-6.67-3.18-13.86-4.77-21.56-4.77s-15.02,1.59-21.69,4.77c-6.67,3.18-12.45,7.79-17.33,13.84-4.88,6.05-8.73,13.5-11.55,22.36-2.82,8.87-4.23,18.99-4.23,30.36s1.41,21.54,4.23,30.49c2.82,8.96,6.67,16.55,11.55,22.77,4.88,6.22,10.65,10.97,17.33,14.24,6.67,3.27,13.9,4.9,21.69,4.9s14.89-1.63,21.56-4.9c6.67-3.27,12.49-8.01,17.46-14.24,4.97-6.22,8.89-13.81,11.75-22.77,2.87-8.95,4.3-19.12,4.3-30.49Z"/>
  <path d="M490.87,420.44c0,12.27,1.51,22.88,4.54,31.82,3.02,8.95,7.01,16.34,11.95,22.17,4.94,5.84,10.54,10.18,16.81,13.04,6.26,2.85,12.59,4.28,18.98,4.28s12.52-1.34,17.89-4.03c5.37-2.68,10.08-6.24,14.12-10.67,4.05-4.43,7.39-9.48,10.03-15.14,2.64-5.66,4.56-11.48,5.75-17.45h30.67c-1.96,10.14-5.09,19.58-9.39,28.31-4.3,8.74-9.76,16.36-16.36,22.88-6.6,6.52-14.31,11.63-23.13,15.34-8.82,3.7-18.68,5.56-29.59,5.56-12.61,0-23.98-2.15-34.12-6.45-10.14-4.3-18.79-10.56-25.94-18.79-7.16-8.22-12.67-18.3-16.55-30.23-3.88-11.93-5.81-25.52-5.81-40.77,0-11.84,1.83-23.24,5.5-34.19,3.66-10.95,9.01-20.64,16.04-29.07,7.03-8.44,15.63-15.17,25.81-20.19,10.18-5.03,21.79-7.54,34.83-7.54,11.08,0,20.96,1.58,29.65,4.73,8.69,3.15,16.31,7.52,22.88,13.1,6.56,5.58,12.08,12.21,16.55,19.87,4.47,7.67,8.03,16.06,10.67,25.18h-31.31c-4.52-12.69-10.74-22.17-18.66-28.44-7.92-6.26-17.85-9.39-29.78-9.39-7.67,0-14.68,1.75-21.02,5.24-6.35,3.49-11.82,8.24-16.42,14.25-4.6,6.01-8.18,13.02-10.73,21.02-2.56,8.01-3.83,16.53-3.83,25.56Z"/>
  <path d="M683.6,391.96v59.92c0,6.22,1.02,11.78,3.07,16.68,2.04,4.9,4.77,9.03,8.18,12.4,3.41,3.37,7.35,5.92,11.82,7.67,4.47,1.75,9.14,2.62,13.99,2.62,5.2,0,10.25-.81,15.14-2.43,4.9-1.62,9.27-4.05,13.1-7.28,3.83-3.24,6.9-7.29,9.2-12.14,2.3-4.86,3.45-10.52,3.45-17v-118.6h30.16v117.32c0,10.65-1.98,20.04-5.94,28.18-3.96,8.14-9.22,14.97-15.78,20.51-6.56,5.54-14.1,9.71-22.62,12.52-8.52,2.81-17.34,4.22-26.46,4.22s-17.1-1.39-25.24-4.15c-8.14-2.77-15.34-6.9-21.6-12.4-6.26-5.5-11.27-12.37-15.02-20.64-3.75-8.26-5.62-17.85-5.62-28.76v-58.64h30.16Z"/>
  <path d="M897.66,412.78l44.73-78.98h34.38l-64.54,107.74v62.47l-30.29,22.62v-85.09l-64.41-107.74h34.25l45.88,78.98Z"/>
  <path d="M1061.76,465.94l43.96-132.15h31.95l-59.94,178.28h-31.95l-60.71-178.28h32.08l44.6,132.15Z"/>
  <path d="M1291.17,333.79v25.43h-95.72v48.18h89.85v25.56h-89.85v53.29h99.81v25.82h-129.97v-178.28h125.89Z"/>
  <path d="M1433.92,486.56v-25.48c0-2.64-.45-5.28-1.34-7.92-.89-2.64-2.32-5-4.28-7.09-1.96-2.09-4.56-3.79-7.8-5.11-3.24-1.32-7.16-1.98-11.76-1.98h-45.5v73.1h-30.16v-178.28h75.66c9.2,0,17.38,1.53,24.54,4.6,7.16,3.07,13.18,7.07,18.08,12.01,4.9,4.94,8.61,10.52,11.12,16.74,2.51,6.22,3.77,12.53,3.77,18.91,0,7.84-2.02,15.19-6.07,22.05-4.05,6.86-10.2,12.8-18.47,17.83,3.92,1.36,7.29,3.32,10.1,5.88s5.11,5.43,6.9,8.63c1.79,3.2,3.11,6.6,3.96,10.22.85,3.62,1.28,7.22,1.28,10.8v1.58M1363.25,413.67h45.5c3.66,0,7.14-.66,10.42-1.98,3.28-1.32,6.18-3.15,8.69-5.5,2.51-2.34,4.49-5.18,5.94-8.5,1.45-3.32,2.17-6.99,2.17-10.99s-.68-7.56-2.04-10.93c-1.36-3.36-3.26-6.26-5.69-8.69-2.43-2.43-5.3-4.35-8.63-5.75-3.32-1.41-6.95-2.11-10.86-2.11h-45.5v54.44Z"/>
  <path d="M1529.26,449.71c.42,6.13,1.68,11.74,3.77,16.81,2.09,5.07,4.83,9.44,8.24,13.1,3.41,3.66,7.41,6.5,12.01,8.5,4.6,2,9.67,3,15.21,3,4.86,0,9.52-.51,13.99-1.53,4.47-1.02,8.41-2.68,11.82-4.98,3.41-2.3,6.13-5.3,8.18-9.01,2.04-3.7,3.07-8.24,3.07-13.61,0-4.86-1.47-8.92-4.41-12.21-2.94-3.28-6.8-6.16-11.57-8.63-4.77-2.47-10.22-4.68-16.36-6.65-6.13-1.96-12.38-4-18.72-6.13-6.35-2.13-12.59-4.54-18.72-7.22-6.13-2.68-11.59-5.96-16.36-9.84-4.77-3.88-8.63-8.54-11.57-13.99-2.94-5.45-4.41-12.01-4.41-19.68s1.53-14.76,4.6-20.77c3.07-6.01,7.39-11.05,12.97-15.14,5.58-4.09,12.22-7.18,19.94-9.27,7.71-2.09,16.17-3.13,25.37-3.13,12.27,0,22.47,1.79,30.61,5.37,8.14,3.58,14.67,8.2,19.62,13.87,4.94,5.67,8.52,11.95,10.73,18.85,2.21,6.9,3.53,13.68,3.96,20.32h-30.8c-.51-5.71-1.72-10.65-3.64-14.82-1.92-4.17-4.41-7.62-7.48-10.35-3.07-2.73-6.56-4.75-10.48-6.07-3.92-1.32-8.09-1.98-12.52-1.98-4.01,0-7.97.41-11.88,1.21-3.92.81-7.41,2.13-10.48,3.96-3.07,1.83-5.54,4.22-7.41,7.16-1.88,2.94-2.81,6.54-2.81,10.8,0,4.94,1.47,9.1,4.41,12.46,2.94,3.37,6.79,6.31,11.57,8.82,4.77,2.51,10.22,4.77,16.36,6.77,6.13,2,12.4,4.09,18.79,6.26,6.39,2.17,12.65,4.58,18.79,7.22,6.13,2.64,11.59,5.88,16.36,9.71,4.77,3.83,8.63,8.44,11.57,13.8,2.94,5.37,4.41,11.8,4.41,19.3,0,9.12-1.68,17.08-5.05,23.9-3.37,6.82-8.05,12.48-14.06,17-6.01,4.52-13.12,7.92-21.34,10.22-8.22,2.3-17.23,3.45-27.03,3.45-8.78,0-17.3-1.53-25.56-4.6-8.27-3.07-15.65-7.5-22.17-13.29-6.52-5.79-11.8-12.8-15.85-21.02-4.05-8.22-6.2-17.53-6.46-27.92h30.8Z"/>
  <g>
    <path d="M375.08,728.3h32.78c3.22-9.04,6.56-18.18,10.01-27.4,3.45-9.22,6.78-18.36,10.01-27.4h-32.75l-20.04,54.8Z"/>
    <polygon points="480.12 540.92 443.59 540.92 404.84 646.9 437.68 646.9 461.59 580.28 485.36 646.9 495.3 673.5 515.45 728.3 548.63 728.3 480.12 540.92"/>
  </g>
  <circle class="st2" cx="359.16" cy="627.14" r="7.27"/>
  <circle class="st2" cx="291.3" cy="609.37" r="7.27"/>
  <circle class="st2" cx="667.78" cy="324.99" r="7.27"/>
  <path class="st2" d="M770.38,777.41c0-4.02,3.26-7.27,7.27-7.27s7.27,3.26,7.27,7.27-3.26,7.27-7.27,7.27c-4.02,0-7.27-3.26-7.27-7.27Z"/>
  <circle class="st2" cx="808.35" cy="732.17" r="7.27"/>
  <circle class="st2" cx="343" cy="706.31" r="7.27"/>
  <g>
    <circle class="st2" cx="364.01" cy="661.07" r="7.27"/>
    <line class="st2" x1="371.28" y1="661.07" x2="496.3" y2="661.07"/>
  </g>
  <polyline class="st2" points="366.43 627.14 376.53 637.24 413.29 637.24"/>
  <polyline class="st2" points="298.57 609.37 322.8 609.37 360.37 646.93 491.85 646.93"/>
  <g>
    <circle class="st2" cx="313.92" cy="669.15" r="7.27"/>
    <polyline class="st2" points="321.19 669.15 333.71 681.67 380.97 681.67 389.25 673.39 503.77 673.39"/>
  </g>
  <polyline class="st2" points="350.27 706.31 366.03 690.56 393.9 690.56"/>
  <g>
    <circle class="st2" cx="766.34" cy="735.4" r="7.27"/>
    <polyline class="st2" points="766.34 728.13 766.34 716.82 775.63 707.53 775.63 692.58"/>
  </g>
  <polyline class="st2" points="777.65 770.14 788.56 759.23 788.56 690.96"/>
  <polyline class="st2" points="808.35 724.9 808.35 713.58 801.48 706.72 801.48 693.06"/>
  <g>
    <circle class="st2" cx="1435.28" cy="526.96" r="7.27"/>
    <line class="st2" x1="1435.28" y1="519.69" x2="1435.28" y2="479.29"/>
  </g>
  <g>
    <circle class="st2" cx="1478.9" cy="575.43" r="7.27"/>
    <polyline class="st2" points="1478.9 568.16 1462.34 551.6 1462.34 527.77 1448.4 513.83 1448.4 466.37"/>
  </g>
  <g>
    <path class="st2" d="M1481.33,535.04c0-4.02,3.26-7.27,7.27-7.27s7.27,3.26,7.27,7.27-3.26,7.27-7.27,7.27c-4.02,0-7.27-3.26-7.27-7.27Z"/>
    <polyline class="st2" points="1488.6 527.77 1463.15 502.32 1463.15 461.47"/>
  </g>
  <polyline class="st0" points="883.68 516.99 883.68 552.81 892.06 559.58 892.06 619.06"/>
  <polyline class="st0" points="889.63 508.44 889.63 547.97 899.08 557.41 899.08 628.76"/>
  <circle class="st2" cx="868.13" cy="572.2" r="7.27"/>
  <polyline class="st2" points="868.13 579.47 883.89 595.23 883.89 615.08"/>
  <polyline class="st1" points="903.68 507.57 903.68 515.65 895.6 523.73 895.6 543.12 906.1 553.62 906.1 622.29"/>
  <g>
    <circle class="st2" cx="936" cy="556.04" r="7.27"/>
    <polyline class="st1" points="911.76 501.11 911.76 517.27 906.1 522.92 906.1 533.75 928.97 556.61"/>
  </g>
  <line class="st2" x1="667.78" y1="332.26" x2="667.78" y2="408.2"/>
  <g>
    <circle class="st2" cx="696.86" cy="300.75" r="7.27"/>
    <polyline class="st2" points="696.86 308.02 696.86 332.26 688.38 340.74 688.38 354.88 682.52 360.74 682.52 391.96"/>
  </g>
  <g>
    <circle class="st2" cx="641.92" cy="337.91" r="7.27"/>
    <polyline class="st2" points="641.92 345.18 654.44 357.71 654.44 399.33"/>
  </g>
</svg>